<svg width="20" height="21" viewBox="0 0 20 21" fill="none" xmlns="http://www.w3.org/2000/svg">
<path d="M7.12556 11.1283C7.12556 10.8756 6.9206 10.6709 6.66771 10.6709H5.07002C4.81742 10.6709 4.61243 10.8756 4.61243 11.1283V12.7258C4.61243 12.9788 4.81742 13.1836 5.07002 13.1836H6.66771C6.9206 13.1836 7.12556 12.9788 7.12556 12.7258V11.1283Z" fill="#40A3FF"/>
<path d="M11.1184 11.1283C11.1184 10.8756 10.9134 10.6709 10.661 10.6709H9.06312C8.81053 10.6709 8.60553 10.8756 8.60553 11.1283V12.7258C8.60553 12.9788 8.81053 13.1836 9.06312 13.1836H10.661C10.9134 13.1836 11.1184 12.9788 11.1184 12.7258V11.1283Z" fill="#40A3FF"/>
<path d="M15.1115 11.1283C15.1115 10.8756 14.9065 10.6709 14.6539 10.6709H13.0562C12.8033 10.6709 12.5984 10.8756 12.5984 11.1283V12.7258C12.5984 12.9788 12.8033 13.1836 13.0562 13.1836H14.6539C14.9065 13.1836 15.1115 12.9788 15.1115 12.7258V11.1283Z" fill="#40A3FF"/>
<path d="M7.12556 15.1216C7.12556 14.8685 6.9206 14.6639 6.66771 14.6639H5.07002C4.81742 14.6639 4.61243 14.8685 4.61243 15.1216V16.7188C4.61243 16.9716 4.81742 17.1764 5.07002 17.1764H6.66771C6.9206 17.1764 7.12556 16.9716 7.12556 16.7188V15.1216Z" fill="#40A3FF"/>
<path d="M11.1184 15.1216C11.1184 14.8685 10.9134 14.6639 10.661 14.6639H9.06312C8.81053 14.6639 8.60553 14.8685 8.60553 15.1216V16.7188C8.60553 16.9716 8.81053 17.1764 9.06312 17.1764H10.661C10.9134 17.1764 11.1184 16.9716 11.1184 16.7188V15.1216Z" fill="#40A3FF"/>
<path d="M15.1115 15.1216C15.1115 14.8685 14.9065 14.6639 14.6541 14.6639H13.0562C12.8033 14.6639 12.5984 14.8685 12.5984 15.1216V16.7188C12.5984 16.9716 12.8033 17.1764 13.0562 17.1764H14.6541C14.9065 17.1764 15.1115 16.9716 15.1115 16.7188V15.1216Z" fill="#40A3FF"/>
<path d="M17.9683 2.24598V4.68602C17.9683 5.78888 17.0736 6.67763 15.9709 6.67763H14.7109C13.6081 6.67763 12.7016 5.78888 12.7016 4.68602V2.23722H7.02237V4.68602C7.02237 5.78888 6.11586 6.67763 5.01324 6.67763H3.75298C2.65032 6.67763 1.75567 5.78888 1.75567 4.68602V2.24598C0.791925 2.27503 0 3.0725 0 4.05268V18.3524C0 19.351 0.809404 20.1712 1.80802 20.1712H17.9159C18.9131 20.1712 19.724 19.3493 19.724 18.3524V4.05268C19.724 3.0725 18.9321 2.27503 17.9683 2.24598ZM17.3831 17.4619C17.3831 17.8935 17.0332 18.2436 16.6015 18.2436H3.08807C2.65635 18.2436 2.30644 17.8935 2.30644 17.4619V10.0756C2.30644 9.64388 2.65631 9.29377 3.08807 9.29377H16.6014C17.0331 9.29377 17.3831 9.64388 17.3831 10.0756L17.3831 17.4619Z" fill="#40A3FF"/>
<path d="M3.74856 5.36951H4.9949C5.3732 5.36951 5.67993 5.06324 5.67993 4.68494V0.68482C5.67993 0.306481 5.3732 0 4.9949 0H3.74856C3.37023 0 3.06354 0.306481 3.06354 0.68482V4.68494C3.06354 5.06324 3.37023 5.36951 3.74856 5.36951Z" fill="#40A3FF"/>
<path d="M14.6949 5.36951H15.9412C16.3193 5.36951 16.626 5.06324 16.626 4.68494V0.68482C16.626 0.306481 16.3193 0 15.9412 0H14.6949C14.3166 0 14.0099 0.306481 14.0099 0.68482V4.68494C14.0099 5.06324 14.3166 5.36951 14.6949 5.36951Z" fill="#40A3FF"/>
</svg>
