<svg width="19" height="19" viewBox="0 0 19 19" fill="none" xmlns="http://www.w3.org/2000/svg">
<path d="M9.5 19C4.26143 19 0 14.7386 0 9.5C0 4.26143 4.26143 0 9.5 0C14.7386 0 19 4.26143 19 9.5C19 14.7386 14.7386 19 9.5 19ZM9.5 2.40408C5.58755 2.40408 2.40408 5.58755 2.40408 9.5C2.40408 13.4124 5.58755 16.5959 9.5 16.5959C13.4124 16.5959 16.5959 13.4124 16.5959 9.5C16.5959 5.58755 13.4124 2.40408 9.5 2.40408Z" fill="#40A3FF"/>
<path d="M9.35652 7.30143C9.9797 7.30143 10.4849 6.79624 10.4849 6.17306C10.4849 5.54988 9.9797 5.04469 9.35652 5.04469C8.73334 5.04469 8.22815 5.54988 8.22815 6.17306C8.22815 6.79624 8.73334 7.30143 9.35652 7.30143Z" fill="#40A3FF"/>
<path d="M11.0549 13.9553H10.4849H8.51507H7.94507V12.4469H8.51507V9.88H7.95282V8.37163H8.51507H10.2018H10.4849V12.4469H11.0549V13.9553Z" fill="#40A3FF"/>
</svg>
