<svg width="20" height="15" viewBox="0 0 20 15" fill="none" xmlns="http://www.w3.org/2000/svg">
<path d="M15.0804 4.41147C15.0537 4.41147 1.74896 4.41147 1.74896 4.41147L4.55207 1.04053C4.73385 0.821913 4.71603 0.486611 4.51228 0.291582C4.3086 0.0965939 3.996 0.115625 3.81423 0.334279L0.65728 4.13068C0.272743 4.59325 0.272782 5.29068 0.657318 5.75313L3.81427 9.54957C3.91198 9.66708 4.04735 9.72688 4.18332 9.72688C4.30045 9.72688 4.418 9.68246 4.51231 9.59227C4.71607 9.39724 4.73385 9.06194 4.55211 8.84333L1.749 5.47234C1.749 5.47234 15.0537 5.47234 15.0804 5.47234C17.2157 5.47234 18.9529 7.33625 18.9529 9.62722C18.9529 11.9182 17.2157 13.7821 15.0804 13.7821H12.7263C12.4532 13.7821 12.2319 14.0196 12.2319 14.3125C12.2319 14.6055 12.4532 14.843 12.7263 14.843H15.0804C17.7609 14.843 19.9417 12.5032 19.9417 9.62722C19.9417 6.75125 17.7609 4.41147 15.0804 4.41147Z" fill="white"/>
</svg>
