<svg width="19" height="21" viewBox="0 0 19 21" fill="none" xmlns="http://www.w3.org/2000/svg">
<path d="M18.6024 4.93943L14.531 0.439476C14.2765 0.158203 13.9313 0 13.5714 0H1.35716C0.607688 0 0 0.671655 0 1.50002V19.5C0 20.3291 0.607688 21.0001 1.35716 21.0001H17.6429C18.3924 21.0001 19 20.3292 19 19.5V6.00002C19 5.60227 18.8569 5.2207 18.6024 4.93943ZM9.50002 6.00002C10.997 6.00002 12.2143 7.3455 12.2143 9.00001C12.2143 10.6546 10.997 12 9.50002 12C8.00304 12 6.78575 10.6545 6.78575 9.00001C6.7857 7.34544 8.00304 6.00002 9.50002 6.00002ZM14.25 16.5H4.75001V15C4.75001 13.9607 5.40207 13.0576 6.49482 12.5837C8.2509 11.8205 10.7485 11.8205 12.5059 12.5837C13.598 13.0576 14.25 13.9607 14.25 15V16.5H14.25ZM14.9286 6.00002C14.179 6.00002 13.5714 5.32837 13.5714 4.5V1.50002L17.6428 6.00002H14.9286Z" fill="#40A3FF"/>
</svg>
